<svg version="1.1" id="Layer_1" xmlns="http://www.w3.org/2000/svg" xmlns:xlink="http://www.w3.org/1999/xlink" x="0px" y="0px"
	 viewBox="0 0 187.6 192" enable-background="new 0 0 187.6 192" xml:space="preserve">
<g>
	<path fill="none" stroke="#FFFFFF" stroke-width="20" stroke-miterlimit="10" d="M180.1,80.4c-3.4,0.6-13.8-2.2-13.8-2.2c-12.9-19-24.2,0-24.2,0
		l-6.9-11.9c-4.1-10.8,5,0,5,0c20.5-42.3-24.6-52.9-24.6-52.9s-0.9,0,6.2,8c7.1,8-8.9,1.7-8.9,1.7c20.3,13.5,12.1,28.9,12.1,28.9
		c-6.2-45.7-62.4-40.1-62.4-40.1C99.5,26.7,83,32.9,83,32.9c17,4.7,17.2,16.2,17.2,16.2C27,70.2,20.3,105.6,20.3,105.6
		c2.4-9.3,9.7-7.1,9.7-7.1c13.4,5.6,42.9-21.1,42.9-21.1c0.6,20.7-45.1,59.8-45.1,59.8c22.9,0.2,26.8-12.7,44-44
		s33.4-25.5,33.4-25.5s-1.4,13.8,2.7,25.1c-40.6,11.7-57.2,39.9-64.1,61.2c-2.4,2.9-5.9,4.5-10.3,1.7c-7-4.4,0.3-11.3,2.2-11
		c1.3,0.2,6,1,4.2,4.9c-2.1,4.3-4.8,1.5-5.1,1c-0.4-0.5,0-4.9,1.9-3.2c1.2,1.1,0.3,2.3,0,2.6c0,0,0,0,0,0c1.5,0,2.8-2.1,1.1-3.2
		c-3.8-2.5-5,2.9-3.5,4.6c1.7,1.9,4.7,2.2,6.4,0.1c4.6-5.6-4.1-9.6-7.6-7.2c-2.1,1.5-8.3,10.3,2.6,13.9c3,1,5.5,0.3,7.4-1.1
		C39,170.5,39,180.4,39,180.4c1.9-10.8,4.6-20.2,8-28.4c0.6-1.1,1-2.2,1.3-3.1c10.9-24.7,27.3-37.7,40.5-44.6l0,0
		c0,0-3.3,12.8,1.7,19.8c-0.8,5.2-5.1,10.6-10.9,8c-7.6-3.4-1.2-11.3,0.7-11.2c1.3,0.1,6.1,0.2,4.8,4.3c-1.5,4.5-4.5,2.2-5,1.7
		c-0.4-0.5-0.6-4.8,1.4-3.5c1.4,0.9,0.6,2.2,0.3,2.6c0,0,0,0,0,0c1.5-0.2,2.4-2.5,0.6-3.3c-4.1-1.9-4.6,3.5-2.8,5
		c1.9,1.7,4.9,1.5,6.3-0.8c3.8-6.2-5.4-9-8.5-6.1c-1.9,1.7-6.8,11.3,4.4,13.5c6.4,1.2,9-4.3,10-8.6c1.7,1.5,3.9,2.6,7,2.8
		c17.4,1.5,14.1-14.6,12.1-17.9c-3.4-5.6-18.1-5.3-15,5.4c1.1,3.9,5.4,5.4,8.9,3.7c3.2-1.5,4.8-9.7-2.1-8.6c-3,0.5-2.5,4.2-0.5,5.1
		c0,0,0,0,0,0c-0.3-0.8-0.9-2.9,1.5-3.7c3.6-1.2,1.5,5.2,0.6,5.7c-0.8,0.5-6.3,2.7-6.6-4.5c-0.3-6.5,6.9-4.7,8.8-4.3
		c2.9,0.7,8.9,14.8-3.6,16.7c-13.7,2.1-16.1-18.4-8.8-24.6c7.3-3.1,13-4.2,15.3-4.6c3.2,5.9,8.4,10.3,16.8,10.7
		c25.5,0.9,35.6-16.8,35.6-16.8l10.4,7.5l-6.2-10.1L180.1,80.4z"/>
	<path fill="none" stroke="#FFFFFF" stroke-width="20" stroke-miterlimit="10" d="M102.4,116.3C102.6,116.6,102.6,116.7,102.4,116.3L102.4,116.3z"/>
	<path fill="none" stroke="#FFFFFF" stroke-width="20" stroke-miterlimit="10" d="M81.9,126C81.7,126.2,81.8,126.2,81.9,126L81.9,126z"/>
	<path fill="none" stroke="#FFFFFF" stroke-width="20" stroke-miterlimit="10" d="M36.5,150.1C36.3,150.3,36.4,150.2,36.5,150.1L36.5,150.1z"/>
</g>
</svg>
