<?xml version="1.0" encoding="utf-8"?>
<!-- Generator: Adobe Illustrator 18.1.0, SVG Export Plug-In . SVG Version: 6.00 Build 0)  -->
<svg version="1.1" xmlns="http://www.w3.org/2000/svg" xmlns:xlink="http://www.w3.org/1999/xlink" x="0px" y="0px"
	 viewBox="0 0 81.1 43.3" enable-background="new 0 0 81.1 43.3" xml:space="preserve">
<g id="Layer_4">
	<path fill="#F7ACC1" d="M62.9,43.2c0.9-1.1,1.1-2.8,0.5-4.1c1.1,0.4,2.3,0.8,3.6,1.1c3.7,1,11.6,3.1,13.7-2.1
		c1.7-4.2-3.3-12.5-2.9-17.7c0.8-6.3,6.2-15.6-0.8-19.8C74.9-1,67.4,1.1,65.4,2.1c-8.3,2-17.7,7.2-25,12.7C33,9.4,23.6,4.1,15.4,2.1
		C13.3,1.1,5.8-1,3.7,0.6c-7.1,4.2-1.7,13.6-0.8,19.8C3.3,25.6-1.7,33.9,0,38.1c2.1,5.2,10,3.1,13.7,2.1c1.3-0.3,2.4-0.6,3.6-1.1
		c-0.6,1.3-0.4,3,0.5,4.1c-1,0.9,21.3-4.2,22.3-18.6c0.1-0.2,0.2-0.3,0.2-0.5c0.1,0.2,0.2,0.3,0.2,0.5C41.7,39,63.9,44.1,62.9,43.2z
		"/>
</g>
<g id="Layer_2">
	<g>
		<path fill="#FFFFFF" d="M16.1,35.7C31,31.4,39.9,12.3,54.9,10.1c7.2-1.1,13.4,2.4,14.6,7.9c1.4,6.2-4.6,12.3-12.7,13.5
			c-4.3,0.6-10.4-0.4-11.4-5c-1-4.6,2.4-8.4,7.4-9.1c2.8-0.4,5,1.4,5.9,4.1c0,0-0.7-0.9-1.5-1.7c-0.9-0.9-2.1-0.6-3.7-0.4
			c-3.2,0.5-8.8,2.8-7.8,7.1c1,4.5,6.9,5.5,11.1,4.9c8-1.2,13.9-7.1,12.5-13.3c-0.3-1.6-3-8-14.1-6.3c-13,1.9-24.4,20.4-39,24.2
			c-0.8,0.2-1.8,0.4-2.3,0.3c-1.6-0.1-2.8-1.1-2.8-2.3c0-0.7,0.5-1.5,1.6-1.4c0.6,0.1,1.3,0.5,1.5,1.2c-0.4,0.1-0.5,0.7-0.4,1.1
			C13.9,35.9,15.1,36,16.1,35.7z"/>
		<path fill="#FFFFFF" d="M67.1,34.7c0.1-0.4,0-1.1-0.4-1.1c0.2-0.7,0.8-1.1,1.5-1.2c1-0.1,1.5,0.7,1.6,1.4c0,1.3-1.2,2.2-2.8,2.3
			c-0.5,0.1-1.5-0.1-2.3-0.3c-14.6-3.8-26-22.3-39-24.2C14.4,10,11.8,16.4,11.4,18C10.1,24.1,16,30.1,24,31.3
			c4.3,0.6,10.2-0.3,11.1-4.9c1-4.2-4.6-6.6-7.8-7.1c-1.6-0.2-2.8-0.5-3.7,0.4c-0.8,0.8-1.5,1.7-1.5,1.7c0.9-2.7,3.1-4.5,5.9-4.1
			c5,0.7,8.4,4.6,7.4,9.1c-1,4.6-7.1,5.6-11.4,5C15.8,30.3,9.9,24.2,11.3,18c1.2-5.5,7.4-8.9,14.6-7.9c15,2.2,23.9,21.3,38.8,25.6
			C65.7,36,66.8,35.9,67.1,34.7z"/>
	</g>
</g>
</svg>
