<svg class="bow bow-bottom" version="1.1" id="Isolation_Mode" xmlns="http://www.w3.org/2000/svg" xmlns:xlink="http://www.w3.org/1999/xlink" x="0px"
	 y="0px" viewBox="0 0 59.8 27.8" enable-background="new 0 0 59.8 27.8" xml:space="preserve">
<g>
	<path class="bow-path" fill="none" stroke="#F3809C" stroke-miterlimit="10" d="M5.6,26.4C20.5,22.1,29.4,3.1,44.4,0.9C51.6-0.2,57.8,3.2,59,8.7
		c1.4,6.2-4.6,12.3-12.7,13.5c-4.3,0.6-10.4-0.4-11.4-5c-1-4.6,2.4-8.4,7.4-9.1c2.8-0.4,5,1.4,5.9,4.1c0,0-0.7-0.9-1.5-1.7
		c-0.9-0.9-2.1-0.6-3.7-0.4c-3.2,0.5-8.8,2.8-7.8,7.1c1,4.5,6.9,5.5,11.1,4.9c8-1.2,13.9-7.1,12.5-13.3c-0.3-1.6-3-8-14.1-6.3
		c-13,1.9-24.4,20.4-39,24.2c-0.8,0.2-1.8,0.4-2.3,0.3c-1.6-0.1-2.8-1.1-2.8-2.3c0-0.7,0.5-1.5,1.6-1.4c0.6,0.1,1.3,0.5,1.5,1.2
		c-0.4,0.1-0.5,0.7-0.4,1.1C3.5,26.6,4.6,26.7,5.6,26.4z"/>
	<path class="bow-path" fill="none" stroke="#F3809C" stroke-miterlimit="10" d="M56.6,25.5c0.1-0.4,0-1.1-0.4-1.1c0.2-0.7,0.8-1.1,1.5-1.2
		c1-0.1,1.5,0.7,1.6,1.4c0,1.3-1.2,2.2-2.8,2.3c-0.5,0.1-1.5-0.1-2.3-0.3c-14.6-3.8-26-22.3-39-24.2C3.9,0.8,1.3,7.2,1,8.7
		C-0.4,14.9,5.5,20.9,13.5,22c4.3,0.6,10.2-0.3,11.1-4.9c1-4.2-4.6-6.6-7.8-7.1c-1.6-0.2-2.8-0.5-3.7,0.4c-0.8,0.8-1.5,1.7-1.5,1.7
		c0.9-2.7,3.1-4.5,5.9-4.1c5,0.7,8.4,4.6,7.4,9.1c-1,4.6-7.1,5.6-11.4,5C5.3,21-0.6,14.9,0.8,8.7C2,3.2,8.2-0.2,15.3,0.9
		c15,2.2,23.9,21.3,38.8,25.6C55.2,26.7,56.3,26.6,56.6,25.5z"/>
</g>
</svg>
