<svg class="bow bow-top" version="1.1" id="Isolation_Mode" xmlns="http://www.w3.org/2000/svg" xmlns:xlink="http://www.w3.org/1999/xlink" x="0px"
	 y="0px" viewBox="0 0 59.4 27.5" enable-background="new 0 0 59.4 27.5" xml:space="preserve">
<g>
	<path class="bow-path" fill="none" stroke="#FFFFFF" stroke-miterlimit="10" d="M53.8,1.1C38.9,5.4,29.9,24.5,14.9,26.7c-7.2,1.1-13.4-2.4-14.6-7.9
		C-1,12.6,4.9,6.5,13,5.3c4.3-0.6,10.4,0.4,11.4,5c1,4.6-2.4,8.4-7.4,9.1c-2.8,0.4-5-1.4-5.9-4.1c0,0,0.7,0.9,1.5,1.7
		c0.9,0.9,2.1,0.6,3.7,0.4c3.2-0.5,8.8-2.8,7.8-7.1c-1-4.5-6.9-5.5-11.1-4.9c-8,1.2-13.9,7.1-12.5,13.3c0.3,1.6,3,8,14.1,6.3
		c13-1.9,24.4-20.4,39-24.2c0.8-0.2,1.8-0.4,2.3-0.3c1.6,0.1,2.8,1.1,2.8,2.3c0,0.7-0.5,1.5-1.6,1.4c-0.6-0.1-1.3-0.5-1.5-1.2
		c0.4-0.1,0.5-0.7,0.4-1.1C55.9,0.9,54.8,0.9,53.8,1.1z"/>
	<path class="bow-path" fill="none" stroke="#FFFFFF" stroke-miterlimit="10" d="M2.8,2.1c-0.1,0.4,0,1.1,0.4,1.1C3,3.9,2.4,4.3,1.7,4.4
		C0.7,4.5,0.2,3.7,0.2,3c0-1.3,1.2-2.2,2.8-2.3C3.5,0.6,4.5,0.7,5.3,1c14.6,3.8,26,22.3,39,24.2c11.2,1.6,13.8-4.8,14.1-6.3
		c1.4-6.1-4.6-12.1-12.5-13.3c-4.3-0.6-10.2,0.3-11.1,4.9c-1,4.2,4.6,6.6,7.8,7.1c1.6,0.2,2.8,0.5,3.7-0.4c0.8-0.8,1.5-1.7,1.5-1.7
		c-0.9,2.7-3.1,4.5-5.9,4.1c-5-0.7-8.4-4.6-7.4-9.1c1-4.6,7.1-5.6,11.4-5C54,6.5,60,12.6,58.6,18.8c-1.2,5.5-7.4,8.9-14.6,7.9
		C29,24.5,20.1,5.4,5.2,1.1C4.2,0.9,3.1,0.9,2.8,2.1z"/>
</g>
</svg>
