<svg version="1.1" id="Layer_1" xmlns="http://www.w3.org/2000/svg" xmlns:xlink="http://www.w3.org/1999/xlink" x="0px" y="0px"
	 viewBox="0 0 28.9 28.8" enable-background="new 0 0 28.9 28.8" xml:space="preserve">
<path fill="#6A4F4A" d="M1.4,28.9H14c0.2,0,0.5-0.2,0.5-0.5c0-0.2-0.2-0.5-0.5-0.5H1.4c-0.2,0-0.5-0.2-0.5-0.5V1.4
	c0-0.2,0.2-0.5,0.5-0.5h19c0.2,0,0.5,0.2,0.5,0.5v4.5c0,0.2,0.2,0.5,0.5,0.5c0.2,0,0.5-0.2,0.5-0.5V1.4c0-0.7-0.6-1.4-1.4-1.4h-19
	C0.6,0,0,0.6,0,1.4v26.2C0,28.3,0.6,28.9,1.4,28.9z"/>
<path fill="#6A4F4A" d="M16.2,9.5v18c0,0.7,0.6,1.4,1.4,1.4h9.9c0.7,0,1.4-0.6,1.4-1.4v-18c0-0.7-0.6-1.4-1.4-1.4h-9.9
	C16.9,8.1,16.2,8.7,16.2,9.5z M28,9.5v18c0,0.2-0.2,0.5-0.5,0.5h-9.9c-0.2,0-0.5-0.2-0.5-0.5v-18c0-0.2,0.2-0.5,0.5-0.5h9.9
	C27.8,9,28,9.2,28,9.5z"/>
<circle fill="#6A4F4A" cx="10.8" cy="25.3" r="0.9"/>
<circle fill="#6A4F4A" cx="22.6" cy="25.3" r="0.9"/>
</svg>
