<svg version="1.1" id="Free_icons" xmlns="http://www.w3.org/2000/svg" xmlns:xlink="http://www.w3.org/1999/xlink" x="0px" y="0px"
	 viewBox="0 0 63.5 60" enable-background="new 0 0 63.5 60" xml:space="preserve">
<g>
	<path fill="none" stroke="#6A4F4A" stroke-width="1.5" stroke-linecap="round" stroke-linejoin="round" stroke-miterlimit="10" d="
		M11.5,53.7c-11.3-11.3-12.3-30.7-1-42c11.3-11.3,29.7-10.3,41,1c11.3,11.3,12.3,29.7,1,41c-5.4,5.4-14.6,5.4-20,0l-11-11
		c-2-2-3-2-4-1c-1,1-1,3,1,5c2,2,2,5,0,7C16.5,55.6,13.5,55.6,11.5,53.7z"/>
	
		<circle fill="none" stroke="#6A4F4A" stroke-width="1.5" stroke-linecap="round" stroke-linejoin="round" stroke-miterlimit="10" cx="42.2" cy="20.2" r="4"/>
	
		<circle fill="none" stroke="#6A4F4A" stroke-width="1.5" stroke-linecap="round" stroke-linejoin="round" stroke-miterlimit="10" cx="49.2" cy="32.7" r="3"/>
	
		<circle fill="none" stroke="#6A4F4A" stroke-width="1.5" stroke-linecap="round" stroke-linejoin="round" stroke-miterlimit="10" cx="42.2" cy="45.1" r="5"/>
	
		<circle fill="none" stroke="#6A4F4A" stroke-width="1.5" stroke-linecap="round" stroke-linejoin="round" stroke-miterlimit="10" cx="26.5" cy="17.5" r="4"/>
</g>
</svg>
