<svg version="1.1" id="Layer_1" xmlns="http://www.w3.org/2000/svg" xmlns:xlink="http://www.w3.org/1999/xlink" x="0px" y="0px"
	 viewBox="0 0 37.6 28.8" enable-background="new 0 0 37.6 28.8" xml:space="preserve">
<path fill="#ffaec2" d="M34.7,6.1h-6.4c-1.6,0-1.7-1.5-1.7-1.7V3.6c0-1.1-1.2-2.6-3.4-2.6h-8.5c-2.5,0-3.4,1.5-3.4,2.6v0.8
	c0,0.1,0,1.7-1.7,1.7H3.1C2,6.1,1,7.1,1,8.3v15.4c0,1.2,1,2.1,2.1,2.1h5.1c0.2,0,0.4-0.2,0.4-0.4c0-0.2-0.2-0.4-0.4-0.4H3.1
	c-0.7,0-1.3-0.6-1.3-1.3V12.9h6.8c-0.5,1.3-0.9,2.8-0.9,4.3c0,6.1,5,11.1,11.1,11.1S30,23.3,30,17.2c0-1.5-0.3-3-0.9-4.3H36v10.7
	c0,0.7-0.6,1.3-1.3,1.3h-6c-0.2,0-0.4,0.2-0.4,0.4c0,0.2,0.2,0.4,0.4,0.4h6c1.2,0,2.1-1,2.1-2.1V8.3C36.8,7.1,35.9,6.1,34.7,6.1z
	 M18.9,27.4c-5.6,0-10.2-4.6-10.2-10.2S13.3,7,18.9,7c5.6,0,10.2,4.6,10.2,10.2S24.6,27.4,18.9,27.4z M28.9,12.1c-0.1,0-0.1,0-0.2,0
	c-1.8-3.6-5.6-6-9.8-6c-4.3,0-8,2.4-9.8,6c-0.1,0-0.1,0-0.2,0h-7V8.3C1.9,7.5,2.4,7,3.1,7h6.4c2,0,2.6-1.7,2.6-2.6V3.6
	c0-0.7,0.7-1.7,2.6-1.7h8.5c1.8,0,2.6,1.1,2.6,1.7v0.9c0,0.9,0.5,2.6,2.6,2.6h6.4C35.4,7,36,7.5,36,8.3v3.8H28.9z"/>
<path fill="#ffaec2" d="M9.1,5.3c0.2,0,0.4-0.2,0.4-0.4V4c0-0.7-0.6-1.3-1.3-1.3H4.8C4.1,2.7,3.6,3.3,3.6,4v0.9
	c0,0.2,0.2,0.4,0.4,0.4c0.2,0,0.4-0.2,0.4-0.4V4c0-0.2,0.2-0.4,0.4-0.4h3.4c0.2,0,0.4,0.2,0.4,0.4v0.9C8.7,5.1,8.9,5.3,9.1,5.3z"/>
<path fill="#ffaec2" d="M18.9,9.5c-4.2,0-7.7,3.4-7.7,7.7s3.4,7.7,7.7,7.7c4.2,0,7.7-3.4,7.7-7.7S23.2,9.5,18.9,9.5z M18.9,24
	c-3.8,0-6.8-3.1-6.8-6.8s3.1-6.8,6.8-6.8c3.8,0,6.8,3.1,6.8,6.8S22.7,24,18.9,24z"/>
</svg>
