<svg version="1.1" id="Layer_1" xmlns="http://www.w3.org/2000/svg" xmlns:xlink="http://www.w3.org/1999/xlink" x="0px" y="0px"
	 viewBox="0 0 37.1 28.8" enable-background="new 0 0 37.1 28.8" xml:space="preserve">
<path fill="#6A4F4A" d="M3.1,23c0.2,0,0.4-0.2,0.4-0.4V1.8c0-0.5,0.4-0.9,0.9-0.9h28.3c0.5,0,0.9,0.4,0.9,1v20.7
	c0,0.2,0.2,0.4,0.4,0.4c0.2,0,0.4-0.2,0.4-0.4V1.8c0-1-0.8-1.8-1.8-1.8H4.4c-1,0-1.8,0.7-1.8,1.8v20.8C2.7,22.8,2.8,23,3.1,23z"/>
<path fill="#6A4F4A" d="M5.7,2.7c-0.2,0-0.4,0.2-0.4,0.4v19.4c0,0.2,0.2,0.4,0.4,0.4h25.6c0.2,0,0.4-0.2,0.4-0.4V3.1
	c0-0.2-0.2-0.4-0.4-0.4H5.7z M30.9,22.1H6.2V3.5h24.8V22.1z"/>
<path fill="#6A4F4A" d="M36.7,24.8H0.4C0.2,24.8,0,25,0,25.2v1c0,1.1,1.2,2.1,2.2,2.1h32.7c1,0,2.2-1.2,2.2-2.2v-0.9
	C37.1,25,36.9,24.8,36.7,24.8z M36.2,26.1c0,0.5-0.8,1.3-1.3,1.3H2.2c-0.6,0-1.3-0.7-1.3-1.2v-0.6h35.4V26.1z"/>
</svg>
