<svg version="1.1" id="Layer_1" xmlns="http://www.w3.org/2000/svg" xmlns:xlink="http://www.w3.org/1999/xlink" x="0px" y="0px"
	 viewBox="0 0 25.2 28.8" enable-background="new 0 0 25.2 28.8" xml:space="preserve">
<path fill="none" stroke="#ffaec2" stroke-width="0.7" stroke-miterlimit="10" d="M7.9,9.8c-2.1,1-2.2,1.9-2.6,4.2h-1
	c-2,0-3.6,1.2-3.6,3.1c0,2,1.6,2.6,3.6,2.6h16.5c2,0,3.6-0.6,3.6-2.6c0-2-1.6-3.1-3.6-3.1h-1.4c-0.4-2.2-0.3-3-2.2-4"/>
<circle fill="none" stroke="#ffaec2" stroke-width="0.7" stroke-miterlimit="10" cx="12.6" cy="9" r="3.1"/>
<path fill="none" stroke="#ffaec2" stroke-width="0.7" stroke-miterlimit="10" d="M11.6,0.5c0,0-2.9,1.8,1,5.4"/>
<polygon fill="none" stroke="#ffaec2" stroke-width="0.7" stroke-miterlimit="10" points="18.4,28.3 7,28.3 4.2,21.3 21.2,21.3 "/>
<line fill="none" stroke="#ffaec2" stroke-width="0.7" stroke-miterlimit="10" x1="12.6" y1="22.4" x2="12.6" y2="26.5"/>
<line fill="none" stroke="#ffaec2" stroke-width="0.7" stroke-miterlimit="10" x1="8.6" y1="22.4" x2="10.3" y2="26.5"/>
<line fill="none" stroke="#ffaec2" stroke-width="0.7" stroke-miterlimit="10" x1="16.3" y1="22.4" x2="14.6" y2="26.5"/>
</svg>
