<?xml version="1.0" encoding="utf-8"?>
<!-- Generator: Adobe Illustrator 18.1.0, SVG Export Plug-In . SVG Version: 6.00 Build 0)  -->
<svg version="1.1" id="Icons" xmlns="http://www.w3.org/2000/svg" xmlns:xlink="http://www.w3.org/1999/xlink" x="0px" y="0px"
	 viewBox="0 0 37.5 47.5" enable-background="new 0 0 37.5 47.5" xml:space="preserve">
<g>
	<path fill="none" stroke="#5F4C4F" stroke-linecap="round" stroke-linejoin="round" stroke-miterlimit="10" d="M28.8,24.8h2
		c3.3,0,6,2.7,6,6c0,3.3-2.7,6-6,6h-2"/>
	<path fill="none" stroke="#5F4C4F" stroke-linecap="round" stroke-linejoin="round" stroke-miterlimit="10" d="M28.8,42.8
		c0,2.2-1.8,4-4,4h-18c-2.2,0-4-1.8-4-4v-22h26V42.8z"/>
	<path fill="none" stroke="#5F4C4F" stroke-linecap="round" stroke-linejoin="round" stroke-miterlimit="10" d="M28.6,1
		c2.1,3.1-1,4.9-1.7,6.6c-0.8,1.8,0,3.5,1.8,4.3C34.5,14.2,36.2,2.8,28.6,1z"/>
	
		<line fill="none" stroke="#5F4C4F" stroke-linecap="round" stroke-linejoin="round" stroke-miterlimit="10" x1="22.8" y1="20.8" x2="28.1" y2="11.5"/>
	
		<line fill="none" stroke="#5F4C4F" stroke-linecap="round" stroke-linejoin="round" stroke-miterlimit="10" x1="30.1" y1="12.1" x2="26.8" y2="20.8"/>
	<polygon fill="none" stroke="#5F4C4F" stroke-linecap="round" stroke-linejoin="round" stroke-miterlimit="10" points="10.8,20.8 
		4.8,20.8 1.8,14.8 0.8,8.8 5.8,11.8 	"/>
	
		<line fill="none" stroke="#5F4C4F" stroke-linecap="round" stroke-linejoin="round" stroke-miterlimit="10" x1="1.8" y1="14.8" x2="5.8" y2="11.8"/>
	
		<rect x="12.8" y="0.8" fill="none" stroke="#5F4C4F" stroke-linecap="round" stroke-linejoin="round" stroke-miterlimit="10" width="8" height="20"/>
	
		<line fill="none" stroke="#5F4C4F" stroke-linecap="round" stroke-linejoin="round" stroke-miterlimit="10" x1="20.8" y1="4.8" x2="16.8" y2="4.8"/>
	
		<line fill="none" stroke="#5F4C4F" stroke-linecap="round" stroke-linejoin="round" stroke-miterlimit="10" x1="20.8" y1="8.8" x2="18.8" y2="8.8"/>
	
		<line fill="none" stroke="#5F4C4F" stroke-linecap="round" stroke-linejoin="round" stroke-miterlimit="10" x1="20.8" y1="12.8" x2="16.8" y2="12.8"/>
	
		<line fill="none" stroke="#5F4C4F" stroke-linecap="round" stroke-linejoin="round" stroke-miterlimit="10" x1="20.8" y1="16.8" x2="18.8" y2="16.8"/>
</g>
</svg>
