<?xml version="1.0" encoding="utf-8"?>
<!-- Generator: Adobe Illustrator 18.1.0, SVG Export Plug-In . SVG Version: 6.00 Build 0)  -->
<svg version="1.1" id="Icons" xmlns="http://www.w3.org/2000/svg" xmlns:xlink="http://www.w3.org/1999/xlink" x="0px" y="0px"
	 viewBox="0 0 48.2 38" enable-background="new 0 0 48.2 38" xml:space="preserve">
<g>
	<path fill="none" stroke="#5F4C4F" stroke-linecap="round" stroke-linejoin="round" stroke-miterlimit="10" d="M47.2,33
		c0,2.2-1.8,4-4,4h-38c-2.2,0-4-1.8-4-4V5c0-2.2,1.8-4,4-4h38c2.2,0,4,1.8,4,4V33z"/>
	
		<line fill="none" stroke="#5F4C4F" stroke-linecap="round" stroke-linejoin="round" stroke-miterlimit="10" x1="1.2" y1="11" x2="47.2" y2="11"/>
	
		<circle fill="none" stroke="#5F4C4F" stroke-linecap="round" stroke-linejoin="round" stroke-miterlimit="10" cx="8.2" cy="6" r="1"/>
	
		<circle fill="none" stroke="#5F4C4F" stroke-linecap="round" stroke-linejoin="round" stroke-miterlimit="10" cx="14.2" cy="6" r="1"/>
	
		<circle fill="none" stroke="#5F4C4F" stroke-linecap="round" stroke-linejoin="round" stroke-miterlimit="10" cx="20.2" cy="6" r="1"/>
</g>
<g>
	<path stroke="#5F4C4F" stroke-miterlimit="10" d="M20.6,19.5v0.6l-6.1,2.5l6.1,2.5v0.7L13.7,23v-0.6L20.6,19.5z"/>
	<path stroke="#5F4C4F" stroke-miterlimit="10" d="M26.8,17.4l-3.9,10.4h-0.6l3.9-10.4H26.8z"/>
	<path stroke="#5F4C4F" stroke-miterlimit="10" d="M28.8,19.5l6.9,2.8V23l-6.9,2.8v-0.7l6-2.5l-6-2.5V19.5z"/>
</g>
</svg>
