<?xml version="1.0" encoding="utf-8"?>
<!-- Generator: Adobe Illustrator 18.1.0, SVG Export Plug-In . SVG Version: 6.00 Build 0)  -->
<svg version="1.1" id="Layer" xmlns="http://www.w3.org/2000/svg" xmlns:xlink="http://www.w3.org/1999/xlink" x="0px" y="0px"
	 viewBox="0 0 28.8 28.8" enable-background="new 0 0 28.8 28.8" xml:space="preserve">
<path fill="#FFFFFF" d="M19.6,1.9c-3.6,0-6.5,3-6.5,6.8v0.2C9.4,8.4,6,6.4,3.6,3.4C3.5,3.1,3.2,3,2.9,3L2.8,3C2.5,3,2.2,3.2,2,3.5
	c-0.6,1-0.9,2.2-0.9,3.4C1.1,8,1.4,9.1,1.9,10c-0.1,0-0.2,0.1-0.3,0.1c-0.3,0.2-0.5,0.5-0.5,0.8v0.1c0,2,0.8,3.8,2.2,5.1l0,0
	c-0.2,0.3-0.3,0.6-0.2,1c0.6,1.9,1.9,3.4,3.6,4.2c-1.3,0.7-2.8,1-4.3,1c-0.4,0-0.8,0-1.2-0.1l-0.1,0c-0.4,0-0.8,0.3-0.9,0.6
	c-0.2,0.4,0,0.9,0.4,1.2c2.7,1.8,5.8,2.8,9,2.8c6.3,0,10.2-3.1,12.4-5.7c2.7-3.2,4.3-7.5,4.3-11.8V9.1c1-0.8,1.9-1.8,2.6-2.9
	c0.2-0.4,0.2-0.9-0.1-1.2c-0.2-0.2-0.5-0.3-0.8-0.3c-0.1,0-0.1,0-0.2,0c0.2-0.3,0.3-0.7,0.4-1c0.1-0.4,0-0.8-0.3-1.1
	c-0.2-0.1-0.4-0.2-0.6-0.2c-0.2,0-0.4,0.1-0.5,0.2c-0.8,0.5-1.7,0.9-2.7,1.1C22.7,2.5,21.2,1.9,19.6,1.9z M19.6,2.9
	c1.6,0,3,0.7,4,1.8C24.8,4.5,26,4,27.1,3.3c-0.4,1.4-1.3,2.5-2.4,3.2c1.1-0.1,2.2-0.5,3.2-0.9c-0.7,1.2-1.7,2.2-2.7,3
	c0,0.2,0,0.5,0,0.8c0,7.7-5.5,16.5-15.7,16.5c-3.1,0-6-1-8.4-2.6c0.4,0,0.9,0.1,1.3,0.1c2.6,0,4.9-0.9,6.8-2.5
	c-2.4-0.1-4.4-1.7-5.1-4C4.3,16.9,4.7,17,5,17c0.5,0,1-0.1,1.4-0.2c-2.5-0.5-4.4-2.9-4.4-5.7V11c0.7,0.4,1.6,0.7,2.5,0.7
	c-1.5-1-2.5-2.8-2.5-4.8c0-1.1,0.3-2.1,0.8-2.9C5.6,7.5,9.6,9.8,14.2,10c-0.1-0.4-0.1-0.9-0.1-1.3C14.1,5.5,16.5,2.9,19.6,2.9z"/>
</svg>
