<?xml version="1.0" encoding="utf-8"?>
<!-- Generator: Adobe Illustrator 18.1.0, SVG Export Plug-In . SVG Version: 6.00 Build 0)  -->
<svg version="1.1" id="Layer" xmlns="http://www.w3.org/2000/svg" xmlns:xlink="http://www.w3.org/1999/xlink" x="0px" y="0px"
	 viewBox="0 0 28.8 28.8" enable-background="new 0 0 28.8 28.8" xml:space="preserve">
<path fill-rule="evenodd" clip-rule="evenodd" fill="#FFFFFF" d="M4.5,0.9c-1.8,0-3.2,1.4-3.2,3.2c0,1.8,1.4,3.2,3.2,3.2
	c1.8,0,3.2-1.4,3.2-3.2C7.7,2.4,6.3,0.9,4.5,0.9z M4.5,8.3c-2.3,0-4.1-1.8-4.1-4.1C0.4,1.8,2.2,0,4.5,0c2.3,0,4.1,1.8,4.1,4.1
	C8.6,6.4,6.8,8.3,4.5,8.3z M7.7,10H1.3v16.6h6.4V10z M1.7,27.5H0.4V27V9.6V9.1h1.3h5.6h1.3v0.5V27v0.5H7.3H1.7z M27.9,17.1
	c0-6.9-4.1-8-6.5-8c-2.3,0-3.6,0.8-5.4,2.9V10h-5.5v16.6H16v-9c0-2,0.8-3.9,2.9-3.9c2.1,0,2.6,1.9,2.6,3.9v9.1h6.4V17.1z M27.5,27.5
	h-5.6h-1.3V27v-9.5c0-3-1.2-3-1.7-3c-2,0-2,2.5-2,3V27v0.5h-0.6h-5.6H9.6V27V9.6V9.1h1.1h5.6h0.6v0.5c0.9-0.9,2.5-1.4,4.3-1.4
	c1.2,0,3.3,0.3,4.8,1.7c1.6,1.5,2.8,4,2.8,7.3V27v0.5H27.5z"/>
</svg>
