<?xml version="1.0" encoding="utf-8"?>
<!-- Generator: Adobe Illustrator 18.1.0, SVG Export Plug-In . SVG Version: 6.00 Build 0)  -->
<svg version="1.1" id="Layer" xmlns="http://www.w3.org/2000/svg" xmlns:xlink="http://www.w3.org/1999/xlink" x="0px" y="0px"
	 viewBox="0 0 28.8 28.8" enable-background="new 0 0 28.8 28.8" xml:space="preserve">
<path fill-rule="evenodd" clip-rule="evenodd" fill="#FFFFFF" d="M27.4,5.3c0-2.4-2-4.4-4.4-4.4H5.3c-2.4,0-4.4,2-4.4,4.4V23
	c0,2.4,2,4.4,4.4,4.4h8.8v-8.8l-2.6,0v-4.4l2.6,0l0-3.6c0-1.4,1-3.5,3.5-3.5H18c4.1,0,4,0,4,0v4.4h-2.7c0,0-0.9,0-0.9,0.9v1.8l2.7,0
	v4.4h-2.7v8.9H23c2.4,0,4.4-2,4.4-4.4V5.3z M20.4,17.7v-2.7l-1.8,0h-0.9v-0.9v-1.8c0-1.1,0.9-1.8,1.7-1.8h1.9V8h-3.5
	c-1.4,0-2.7,1.2-2.7,2.7v4.4h-2.7v2.7h2.7L15,27.4h2.7v-9.7H20.4z M23,28.3H5.3C2.4,28.3,0,26,0,23V5.3C0,2.4,2.4,0,5.3,0H23
	c2.9,0,5.3,2.4,5.3,5.3V23C28.3,26,26,28.3,23,28.3z"/>
</svg>
